<?xml version="1.0" standalone="no"?>
<!DOCTYPE svg PUBLIC "-//W3C//DTD SVG 20010904//EN"
 "http://www.w3.org/TR/2001/REC-SVG-20010904/DTD/svg10.dtd">
<svg version="1.0" xmlns="http://www.w3.org/2000/svg"
 width="512.000000pt" height="512.000000pt" viewBox="0 0 512.000000 512.000000"
 preserveAspectRatio="xMidYMid meet">

<style>
g {fill: black}
@media (prefers-color-scheme: dark) {g {fill: white}}
</style>
<g transform="translate(0.000000,512.000000) scale(0.100000,-0.100000)"
fill="#000000" stroke="none">
<path d="M51 5106 c-53 -30 -50 126 -51 -2543 0 -1904 3 -2488 12 -2508 27
-59 -152 -55 2548 -55 2700 0 2521 -4 2548 55 9 20 12 604 12 2506 0 2699 4
2520 -55 2547 -20 9 -462 12 -1870 12 -1408 0 -1850 -3 -1870 -12 -49 -22 -68
-85 -41 -137 23 -44 53 -51 211 -51 l145 0 0 -720 0 -720 -720 0 -720 0 0 720
0 720 145 0 c107 0 153 4 174 14 66 35 66 137 0 172 -39 20 -432 20 -468 0z
m3229 -906 l0 -720 -720 0 -720 0 0 720 0 720 720 0 720 0 0 -720z m1640 0 l0
-720 -720 0 -720 0 0 720 0 720 720 0 720 0 0 -720z m-3280 -1640 l0 -720
-720 0 -720 0 0 720 0 720 720 0 720 0 0 -720z m1640 0 l0 -720 -720 0 -720 0
0 720 0 720 720 0 720 0 0 -720z m1640 0 l0 -720 -720 0 -720 0 0 720 0 720
720 0 720 0 0 -720z m-3280 -1640 l0 -720 -720 0 -720 0 0 720 0 720 720 0
720 0 0 -720z m1640 0 l0 -720 -720 0 -720 0 0 720 0 720 720 0 720 0 0 -720z
m1640 0 l0 -720 -720 0 -720 0 0 720 0 720 720 0 720 0 0 -720z"/>
<path d="M2543 4668 c-181 -158 -297 -384 -310 -603 -4 -76 -2 -99 16 -146 43
-114 160 -203 283 -216 126 -13 266 65 325 181 21 40 27 70 31 137 4 78 2 92
-23 148 -48 106 -149 182 -265 197 -28 4 -50 10 -50 15 0 4 37 47 82 95 75 78
83 90 83 126 0 33 -7 46 -33 69 -45 40 -90 39 -139 -3z m71 -512 c100 -42 101
-200 1 -242 -45 -18 -69 -18 -112 3 -96 45 -97 189 -2 236 42 20 70 21 113 3z"/>
<path d="M777 3040 c-32 -25 -46 -66 -36 -106 13 -48 42 -67 109 -72 l60 -4 0
-369 0 -368 24 -28 c20 -23 32 -28 69 -28 54 0 82 22 97 74 6 21 10 198 10
429 0 512 8 492 -191 492 -101 0 -120 -3 -142 -20z"/>
<path d="M2472 3042 c-63 -23 -124 -78 -154 -142 -30 -62 -30 -159 0 -220 l21
-43 -31 -36 c-54 -61 -73 -116 -73 -211 0 -66 5 -96 22 -132 30 -66 96 -133
162 -165 76 -38 200 -40 276 -5 63 29 129 92 163 157 24 44 27 61 27 145 0 83
-3 101 -27 145 -14 28 -38 61 -52 74 l-25 24 22 41 c31 58 31 174 0 232 -66
125 -204 181 -331 136z m133 -207 c14 -13 25 -33 25 -45 0 -11 -11 -32 -25
-45 -13 -14 -33 -25 -45 -25 -27 0 -70 43 -70 70 0 27 43 70 70 70 12 0 32
-11 45 -25z m16 -330 c64 -34 87 -120 49 -182 -57 -93 -194 -79 -230 25 -13
37 -13 47 0 84 27 76 110 109 181 73z"/>
<path d="M4048 3044 c-15 -8 -32 -23 -37 -33 -12 -21 -71 -364 -71 -409 0 -18
11 -43 26 -61 30 -36 72 -41 139 -16 82 29 153 16 205 -40 21 -22 25 -36 25
-86 0 -54 -3 -61 -36 -95 -50 -50 -99 -56 -179 -20 -69 31 -98 28 -135 -16
-33 -39 -33 -87 0 -126 66 -78 243 -104 355 -51 77 36 121 77 161 151 32 59
34 69 34 158 0 89 -2 99 -34 158 -58 107 -155 170 -277 180 -53 4 -64 8 -60
21 3 9 8 35 11 59 l7 42 125 0 c124 0 125 0 154 29 47 47 33 132 -26 159 -40
18 -352 16 -387 -4z"/>
<path d="M651 1406 c-47 -26 -63 -84 -37 -135 23 -44 53 -51 216 -51 83 0 150
-4 150 -8 0 -5 -63 -152 -141 -328 -77 -175 -143 -334 -146 -352 -10 -59 38
-112 101 -112 56 0 77 38 265 467 100 226 181 421 181 432 0 34 -22 72 -51 87
-39 20 -502 20 -538 0z"/>
<path d="M871 5106 c-87 -48 -50 -186 49 -186 51 0 100 49 100 99 0 75 -83
124 -149 87z"/>
</g>
</svg>
